<svg xmlns="http://www.w3.org/2000/svg" xmlns:xlink="http://www.w3.org/1999/xlink" width="428" height="598" viewBox="0 0 428 598">
  <defs>
    <style>
      .cls-1 {
        fill: #fff;
        stroke: #707070;
      }

      .cls-2 {
        clip-path: url(#clip-path);
      }

      .cls-3 {
        fill: #ebdb1d;
      }
    </style>
    <clipPath id="clip-path">
      <rect id="Rectangle_10" data-name="Rectangle 10" class="cls-1" width="428" height="598" transform="translate(426 242)"/>
    </clipPath>
  </defs>
  <g id="Mask_Group_3" data-name="Mask Group 3" class="cls-2" transform="translate(-426 -242)">
    <path id="Icon_awesome-sun" data-name="Icon awesome-sun" class="cls-3" d="M283,176.875A106.125,106.125,0,1,0,389.125,283,106.294,106.294,0,0,0,283,176.875Zm272.388,88.99L450.7,213.577l37.033-110.989c4.975-15.034-9.286-29.295-24.21-24.21L352.534,115.411l-52.4-104.8a19.139,19.139,0,0,0-34.27,0L213.577,115.3l-111.1-37.033c-15.034-4.975-29.295,9.286-24.21,24.21L115.3,213.466l-104.688,52.4a19.139,19.139,0,0,0,0,34.27L115.3,352.423l-37.033,111.1c-4.975,15.034,9.286,29.295,24.21,24.21L213.466,450.7l52.289,104.688a19.139,19.139,0,0,0,34.27,0L352.313,450.7,463.3,487.733c15.034,4.975,29.295-9.286,24.21-24.21L450.479,352.534l104.688-52.289c14.371-7.186,14.371-27.305.221-34.38ZM383.045,383.045c-55.163,55.163-144.927,55.163-200.09,0s-55.163-144.927,0-200.09,144.927-55.163,200.09,0S438.208,327.882,383.045,383.045Z" transform="translate(248 257)"/>
  </g>
</svg>
